<svg xmlns="http://www.w3.org/2000/svg" viewBox="0 0 260 270" width="260" height="270">
  <!-- 흙순이 (土) - 넓적 통통 고양이 / 졸린 표정 -->

  <!-- 고양이 귀 (살짝 접힌 스코티시폴드풍) -->
  <path d="M82 66 C78 44 82 28 94 36 C98 38 96 52 94 66" fill="#F0EBE2" stroke="#4A4A4A" stroke-width="2.8" stroke-linejoin="round"/>
  <path d="M86 58 C84 44 88 36 94 42 C94 44 92 52 90 58" fill="#E8DFC8" opacity="0.5"/>
  <path d="M178 66 C182 44 178 28 166 36 C162 38 164 52 166 66" fill="#F0EBE2" stroke="#4A4A4A" stroke-width="2.8" stroke-linejoin="round"/>
  <path d="M174 58 C176 44 172 36 166 42 C166 44 168 52 170 58" fill="#E8DFC8" opacity="0.5"/>

  <!-- 몸 (넓적하게! 가로가 더 넓은 타원) -->
  <ellipse cx="130" cy="142" rx="72" ry="68" fill="#F0EBE2" stroke="#4A4A4A" stroke-width="2.8"/>

  <!-- 배 (따뜻한 황토) -->
  <ellipse cx="130" cy="156" rx="40" ry="34" fill="#E8DFC8" opacity="0.35"/>

  <!-- 볼터치 (크고 따뜻하게) -->
  <circle cx="94" cy="146" r="18" fill="#F2D0D5" opacity="0.65"/>
  <circle cx="166" cy="146" r="18" fill="#F2D0D5" opacity="0.65"/>

  <!-- 눈썹 (처진 졸린 눈썹) -->
  <path d="M110 120 C116 118 122 122" fill="none" stroke="#4A4A4A" stroke-width="2.5" stroke-linecap="round"/>
  <path d="M138 122 C144 118 150 120" fill="none" stroke="#4A4A4A" stroke-width="2.5" stroke-linecap="round"/>

  <!-- 눈 (졸린 반달눈 ㅡ.ㅡ) -->
  <path d="M110 134 C114 130 120 130 124 134" fill="none" stroke="#4A4A4A" stroke-width="3" stroke-linecap="round"/>
  <path d="M136 134 C140 130 146 130 150 134" fill="none" stroke="#4A4A4A" stroke-width="3" stroke-linecap="round"/>

  <!-- 코 -->
  <path d="M127 147 L130 143.5 L133 147 Z" fill="#C8B68E"/>

  <!-- 입 (편안한 ω) -->
  <path d="M122 153 C125 158 128 159 130 155 C132 159 135 158 138 153" fill="none" stroke="#4A4A4A" stroke-width="2" stroke-linecap="round" stroke-linejoin="round"/>

  <!-- 수염 (짧고 처진) -->
  <line x1="86" y1="146" x2="66" y2="144" stroke="#4A4A4A" stroke-width="1.8" stroke-linecap="round"/>
  <line x1="86" y1="152" x2="64" y2="154" stroke="#4A4A4A" stroke-width="1.8" stroke-linecap="round"/>
  <line x1="86" y1="158" x2="66" y2="164" stroke="#4A4A4A" stroke-width="1.8" stroke-linecap="round"/>
  <line x1="174" y1="146" x2="194" y2="144" stroke="#4A4A4A" stroke-width="1.8" stroke-linecap="round"/>
  <line x1="174" y1="152" x2="196" y2="154" stroke="#4A4A4A" stroke-width="1.8" stroke-linecap="round"/>
  <line x1="174" y1="158" x2="194" y2="164" stroke="#4A4A4A" stroke-width="1.8" stroke-linecap="round"/>

  <!-- 팔 (짧고 뭉툭) -->
  <path d="M62 158 C48 162 42 170 44 178 C46 184 52 184 54 180" fill="#F0EBE2" stroke="#4A4A4A" stroke-width="2.8" stroke-linecap="round" stroke-linejoin="round"/>
  <path d="M198 158 C212 162 218 170 216 178 C214 184 208 184 206 180" fill="#F0EBE2" stroke="#4A4A4A" stroke-width="2.8" stroke-linecap="round" stroke-linejoin="round"/>

  <!-- 발 -->
  <ellipse cx="108" cy="210" rx="18" ry="9" fill="#F0EBE2" stroke="#4A4A4A" stroke-width="2.5"/>
  <ellipse cx="152" cy="210" rx="18" ry="9" fill="#F0EBE2" stroke="#4A4A4A" stroke-width="2.5"/>

  <!-- 꼬리 (통통하고 느긋하게 말린) -->
  <path d="M198 185 C214 180 222 170 218 158 C216 152 210 152 212 158" fill="none" stroke="#4A4A4A" stroke-width="3" stroke-linecap="round"/>
</svg>
