<svg xmlns="http://www.w3.org/2000/svg" viewBox="0 0 240 270" width="240" height="270">
  <!-- 나무리 (木) - 새싹 고양이 / 따뜻하고 밝은 표정 -->

  <!-- 새싹 장식 -->
  <path d="M114 30 C108 18 110 6 116 2 C118 0 120 4 120 10 C120 4 122 0 124 2 C130 6 132 18 126 30" fill="#8FB89A" stroke="#5A8A64" stroke-width="1.2" stroke-linejoin="round"/>

  <!-- 고양이 귀 (둥근 삼각형!) -->
  <path d="M72 62 C68 38 72 18 84 28 C88 32 86 48 84 62" fill="#F5F0EA" stroke="#4A4A4A" stroke-width="2.8" stroke-linejoin="round"/>
  <path d="M76 54 C74 40 78 30 84 36 C86 38 84 48 82 54" fill="#F2D0D5" opacity="0.5"/>
  <path d="M168 62 C172 38 168 18 156 28 C152 32 154 48 156 62" fill="#F5F0EA" stroke="#4A4A4A" stroke-width="2.8" stroke-linejoin="round"/>
  <path d="M164 54 C166 40 162 30 156 36 C154 38 156 48 158 54" fill="#F2D0D5" opacity="0.5"/>

  <!-- 몸 (부드러운 타원 — 통통한 고양이 몸) -->
  <ellipse cx="120" cy="140" rx="62" ry="72" fill="#F5F0EA" stroke="#4A4A4A" stroke-width="2.8"/>

  <!-- 볼터치 (둥글고 뚜렷하게!) -->
  <circle cx="86" cy="142" r="16" fill="#F2D0D5" opacity="0.7"/>
  <circle cx="154" cy="142" r="16" fill="#F2D0D5" opacity="0.7"/>

  <!-- 눈썹 -->
  <path d="M98 118 C104 114 110 118" fill="none" stroke="#4A4A4A" stroke-width="2.5" stroke-linecap="round"/>
  <path d="M130 118 C136 114 142 118" fill="none" stroke="#4A4A4A" stroke-width="2.5" stroke-linecap="round"/>

  <!-- 눈 (큰 동그란 눈!) -->
  <circle cx="104" cy="132" r="6.5" fill="#4A4A4A"/>
  <circle cx="136" cy="132" r="6.5" fill="#4A4A4A"/>
  <circle cx="106.5" cy="129.5" r="2.5" fill="white"/>
  <circle cx="138.5" cy="129.5" r="2.5" fill="white"/>

  <!-- 코 (작은 삼각 고양이 코) -->
  <path d="M117 145 L120 141.5 L123 145 Z" fill="#D4918E"/>

  <!-- 입 (ω 고양이 입!) -->
  <path d="M112 150 C114 155 118 157 120 153 C122 157 126 155 128 150" fill="none" stroke="#4A4A4A" stroke-width="2" stroke-linecap="round" stroke-linejoin="round"/>

  <!-- 수염 (고양이 핵심!) -->
  <line x1="76" y1="142" x2="58" y2="138" stroke="#4A4A4A" stroke-width="1.8" stroke-linecap="round"/>
  <line x1="76" y1="148" x2="56" y2="150" stroke="#4A4A4A" stroke-width="1.8" stroke-linecap="round"/>
  <line x1="76" y1="154" x2="58" y2="160" stroke="#4A4A4A" stroke-width="1.8" stroke-linecap="round"/>
  <line x1="164" y1="142" x2="182" y2="138" stroke="#4A4A4A" stroke-width="1.8" stroke-linecap="round"/>
  <line x1="164" y1="148" x2="184" y2="150" stroke="#4A4A4A" stroke-width="1.8" stroke-linecap="round"/>
  <line x1="164" y1="154" x2="182" y2="160" stroke="#4A4A4A" stroke-width="1.8" stroke-linecap="round"/>

  <!-- 팔 (짧고 통통) -->
  <path d="M62 155 C50 158 44 166 46 174 C48 180 54 180 56 176" fill="#F5F0EA" stroke="#4A4A4A" stroke-width="2.8" stroke-linecap="round" stroke-linejoin="round"/>
  <path d="M178 155 C190 158 196 166 194 174 C192 180 186 180 184 176" fill="#F5F0EA" stroke="#4A4A4A" stroke-width="2.8" stroke-linecap="round" stroke-linejoin="round"/>

  <!-- 발 (작은 타원 + 육구) -->
  <ellipse cx="98" cy="212" rx="16" ry="9" fill="#F5F0EA" stroke="#4A4A4A" stroke-width="2.5"/>
  <ellipse cx="142" cy="212" rx="16" ry="9" fill="#F5F0EA" stroke="#4A4A4A" stroke-width="2.5"/>

  <!-- 꼬리 (길고 부드러운 고양이 꼬리) -->
  <path d="M180 185 C200 180 212 168 208 152 C206 144 198 142 196 150" fill="none" stroke="#4A4A4A" stroke-width="2.8" stroke-linecap="round"/>

  <!-- 새싹 포인트 (발에 초록 육구) -->
  <circle cx="98" cy="214" r="2.5" fill="#8FB89A" opacity="0.6"/>
  <circle cx="142" cy="214" r="2.5" fill="#8FB89A" opacity="0.6"/>
</svg>
