<svg xmlns="http://www.w3.org/2000/svg" viewBox="0 0 240 270" width="240" height="270">
  <!-- 쇠동이 (金) - 도도한 은빛 고양이 / 리본 장식 -->

  <!-- 리본 (한쪽 귀에) -->
  <path d="M158 30 C166 22 174 24 170 32 C174 28 178 34 170 38 C168 40 164 36 164 34" fill="#C8DBEA" stroke="#4A4A4A" stroke-width="1.5" stroke-linejoin="round"/>

  <!-- 고양이 귀 (뾰족하고 세련된) -->
  <path d="M72 62 C68 36 74 14 86 26 C90 30 86 48 84 62" fill="#ECEDEF" stroke="#4A4A4A" stroke-width="2.8" stroke-linejoin="round"/>
  <path d="M76 54 C74 38 80 26 86 34 C86 36 84 48 82 54" fill="#E0E2E4" opacity="0.5"/>
  <path d="M168 62 C172 36 166 14 154 26 C150 30 154 48 156 62" fill="#ECEDEF" stroke="#4A4A4A" stroke-width="2.8" stroke-linejoin="round"/>
  <path d="M164 54 C166 38 160 26 154 34 C154 36 156 48 158 54" fill="#E0E2E4" opacity="0.5"/>

  <!-- 반짝임 -->
  <g fill="none" stroke="#B8BCC0" stroke-width="1.5" stroke-linecap="round" opacity="0.5">
    <line x1="56" y1="42" x2="56" y2="34"/><line x1="52" y1="38" x2="60" y2="38"/>
  </g>

  <!-- 몸 -->
  <ellipse cx="120" cy="140" rx="62" ry="72" fill="#ECEDEF" stroke="#4A4A4A" stroke-width="2.8"/>

  <!-- 볼터치 (은은하게) -->
  <circle cx="86" cy="142" r="14" fill="#F2D0D5" opacity="0.55"/>
  <circle cx="154" cy="142" r="14" fill="#F2D0D5" opacity="0.55"/>

  <!-- 눈썹 (도도하게 ㅡ) -->
  <path d="M96 120 C104 118 112 120" fill="none" stroke="#4A4A4A" stroke-width="2.5" stroke-linecap="round"/>
  <path d="M128 120 C136 118 144 120" fill="none" stroke="#4A4A4A" stroke-width="2.5" stroke-linecap="round"/>

  <!-- 눈 (도도한 반달눈 — 위가 일자) -->
  <path d="M96 132 C100 128 108 128 112 132" fill="#4A4A4A" stroke="none"/>
  <path d="M96 132 C100 134 108 134 112 132" fill="#4A4A4A" stroke="none"/>
  <circle cx="106" cy="130" r="1.8" fill="white"/>

  <path d="M128 132 C132 128 140 128 144 132" fill="#4A4A4A" stroke="none"/>
  <path d="M128 132 C132 134 140 134 144 132" fill="#4A4A4A" stroke="none"/>
  <circle cx="138" cy="130" r="1.8" fill="white"/>

  <!-- 코 -->
  <path d="M117 145 L120 141.5 L123 145 Z" fill="#B8BCC0"/>

  <!-- 입 (도도한 ω) -->
  <path d="M113 150 C115 154 118 155 120 152 C122 155 125 154 127 150" fill="none" stroke="#4A4A4A" stroke-width="2" stroke-linecap="round" stroke-linejoin="round"/>

  <!-- 수염 (정돈된) -->
  <line x1="78" y1="142" x2="60" y2="138" stroke="#4A4A4A" stroke-width="1.8" stroke-linecap="round"/>
  <line x1="78" y1="148" x2="58" y2="150" stroke="#4A4A4A" stroke-width="1.8" stroke-linecap="round"/>
  <line x1="78" y1="154" x2="60" y2="160" stroke="#4A4A4A" stroke-width="1.8" stroke-linecap="round"/>
  <line x1="162" y1="142" x2="180" y2="138" stroke="#4A4A4A" stroke-width="1.8" stroke-linecap="round"/>
  <line x1="162" y1="148" x2="182" y2="150" stroke="#4A4A4A" stroke-width="1.8" stroke-linecap="round"/>
  <line x1="162" y1="154" x2="180" y2="160" stroke="#4A4A4A" stroke-width="1.8" stroke-linecap="round"/>

  <!-- 팔 -->
  <path d="M62 155 C50 158 44 166 46 174 C48 180 54 180 56 176" fill="#ECEDEF" stroke="#4A4A4A" stroke-width="2.8" stroke-linecap="round" stroke-linejoin="round"/>
  <path d="M178 155 C190 158 196 166 194 174 C192 180 186 180 184 176" fill="#ECEDEF" stroke="#4A4A4A" stroke-width="2.8" stroke-linecap="round" stroke-linejoin="round"/>

  <!-- 발 -->
  <ellipse cx="98" cy="212" rx="16" ry="9" fill="#ECEDEF" stroke="#4A4A4A" stroke-width="2.5"/>
  <ellipse cx="142" cy="212" rx="16" ry="9" fill="#ECEDEF" stroke="#4A4A4A" stroke-width="2.5"/>

  <!-- 꼬리 (우아하게 올린) -->
  <path d="M180 185 C198 176 210 158 204 140 C200 130 192 132 196 142" fill="none" stroke="#4A4A4A" stroke-width="2.8" stroke-linecap="round"/>
</svg>
